Coordinates
version=1
nRows=4
nColumns=114
inDegrees=yes

Units are S.I. units (second, meters, Newtons, ...)
If the header above contains a line with 'inDegrees', this indicates whether rotational values are in degrees (yes) or radians (no).

endheader 
time	pelvis_tilt	pelvis_list	pelvis_rotation	pelvis_tx	pelvis_ty	pelvis_tz	hip_flexion_l	hip_adduction_l	hip_rotation_l	hip_flexion_r	hip_adduction_r	hip_rotation_r	knee_angle_l	knee_angle_r	ankle_angle_l	ankle_angle_r	subtalar_angle_l	subtalar_angle_r	mtp_angle_l	mtp_angle_r	lumbar_extension	lumbar_bending	lumbar_rotation	arm_flex_l	arm_add_l	arm_rot_l	arm_flex_r	arm_add_r	arm_rot_r	elbow_flex_l	elbow_flex_r	pro_sup_l	pro_sup_r	addbrev_l/activation	addlong_l/activation	addmagDist_l/activation	addmagIsch_l/activation	addmagMid_l/activation	addmagProx_l/activation	bflh_l/activation	bfsh_l/activation	edl_l/activation	ehl_l/activation	fdl_l/activation	fhl_l/activation	gaslat_l/activation	gasmed_l/activation	glmax1_l/activation	glmax2_l/activation	glmax3_l/activation	glmed1_l/activation	glmed2_l/activation	glmed3_l/activation	glmin1_l/activation	glmin2_l/activation	glmin3_l/activation	grac_l/activation	iliacus_l/activation	perbrev_l/activation	perlong_l/activation	piri_l/activation	psoas_l/activation	recfem_l/activation	sart_l/activation	semimem_l/activation	semiten_l/activation	soleus_l/activation	tfl_l/activation	tibant_l/activation	tibpost_l/activation	vasint_l/activation	vaslat_l/activation	vasmed_l/activation	addbrev_r/activation	addlong_r/activation	addmagDist_r/activation	addmagIsch_r/activation	addmagMid_r/activation	addmagProx_r/activation	bflh_r/activation	bfsh_r/activation	edl_r/activation	ehl_r/activation	fdl_r/activation	fhl_r/activation	gaslat_r/activation	gasmed_r/activation	glmax1_r/activation	glmax2_r/activation	glmax3_r/activation	glmed1_r/activation	glmed2_r/activation	glmed3_r/activation	glmin1_r/activation	glmin2_r/activation	glmin3_r/activation	grac_r/activation	iliacus_r/activation	perbrev_r/activation	perlong_r/activation	piri_r/activation	psoas_r/activation	recfem_r/activation	sart_r/activation	semimem_r/activation	semiten_r/activation	soleus_r/activation	tfl_r/activation	tibant_r/activation	tibpost_r/activation	vasint_r/activation	vaslat_r/activation	vasmed_r/activation	
          6.60085036	        -14.42794198	         -0.36676288	        352.58334402	         -0.94762182	          0.99361992	          0.11235990	         52.79456975	         -5.75799915	        -20.08219871	        -10.89247148	        -15.80175577	          0.06328497	         34.49686230	         27.44746621	         -5.91846333	        -31.33736830	         -5.00195225	        -18.86020927	         -1.87653957	         -1.40188203	          9.18276006	        -12.29960741	         28.66069641	       -460.20387161	        -24.33302280	       -115.69521931	       -114.31862108	        182.54758081	       -147.01349201	         24.85369596	        107.69969827	         96.34031644	        101.83869979	          0.04366796	          0.03612173	          0.08495995	          0.06406265	          0.11993446	          0.03639856	          0.20002600	          0.22218730	          0.11338789	          0.06805930	          0.02397931	          0.03138025	          0.02077430	          0.06369707	          0.04703474	          0.08598632	          0.09891775	          0.13996658	          0.06634880	          0.02953895	          0.06089238	          0.05997104	          0.02842725	          0.07596087	          0.21499930	          0.24441247	          0.06258180	          0.15472662	          0.20730729	          0.03976447	          0.57392765	          0.45639296	          0.08680066	          0.01196613	          0.14890009	          0.20736127	          0.39057778	          0.01204846	          0.02687109	          0.01443726	          0.99991197	          0.99998533	          0.01002032	          0.01000884	          0.79684477	          0.99996515	          0.03316994	          0.77754495	          0.77117877	          0.26344805	          0.04380906	          0.02997647	          0.03600346	          0.04982773	          0.01000323	          0.01000200	          0.01000361	          0.01000571	          0.01000585	          0.01000488	          0.16621986	          0.15827108	          0.03762069	          0.99862126	          0.99998847	          0.09589494	          0.07760815	          0.08237201	          0.99999076	          0.40606935	          0.99997631	          0.05390979	          0.06160332	          0.03600298	          0.69167549	          0.06889992	          0.06732256	          0.01000097	          0.01000030	          0.01000070	
          6.61088437	        -11.42462574	         -1.94213824	        353.55655284	         -0.87425426	          0.99521026	          0.09770517	         47.39194505	         -4.66101168	        -16.86131815	        -12.21341103	        -14.36569872	          0.17908220	         30.61010252	         33.62796355	         -7.27689750	        -32.19810033	         -2.66580992	        -22.38586130	         -1.64559979	         -0.92785052	          6.78350522	        -10.78365733	         28.08106615	       -457.76705977	        -19.77456230	        -96.61338809	       -124.32348287	        185.91546779	       -148.46084301	         35.16556696	        108.17749557	         81.56455493	         99.47429191	          0.03636608	          0.03008163	          0.07075360	          0.05336035	          0.09987894	          0.03031441	          0.16657940	          0.18505410	          0.11697309	          0.05670042	          0.01999637	          0.02613984	          0.01731303	          0.05306335	          0.03917544	          0.07161010	          0.08237724	          0.11656253	          0.05526414	          0.02463593	          0.05071532	          0.04995444	          0.02375496	          0.06325983	          0.17905272	          0.32319989	          0.08265754	          0.35709431	          0.33397390	          0.03312986	          0.73051361	          0.38006969	          0.07228744	          0.01002361	          0.12422544	          0.33350663	          0.65904269	          0.01003856	          0.02237791	          0.01202412	          0.99996580	          0.99998992	          0.01002682	          0.01000972	          0.93271840	          0.99996670	          0.04070681	          0.64751847	          0.92424200	          0.38747508	          0.03648539	          0.02496867	          0.02998259	          0.04149489	          0.01000409	          0.01000245	          0.01000395	          0.01000676	          0.01000776	          0.01000681	          0.13843012	          0.13180777	          0.03133429	          0.83167702	          0.99999133	          0.07985994	          0.06462978	          0.06859777	          0.99999069	          0.63482868	          0.99984413	          0.10949908	          0.05130422	          0.02998208	          0.78635694	          0.19955050	          0.06654191	          0.01000153	          0.01000049	          0.01000110	
          6.62091839	         -7.75816056	         -2.97013166	        354.63389557	         -0.80362294	          0.99693949	          0.08317420	         41.69574598	         -3.33057580	        -13.15868257	        -13.27906069	        -13.47425435	          0.78841699	         27.36145489	         41.34210610	         -8.93714437	        -29.76784161	         -1.04095961	        -23.04975585	         -1.36898701	         -0.57995353	          3.19926217	        -10.06595543	         27.69645911	       -454.75023559	        -16.83074930	        -85.28846708	       -133.43277094	        188.79364164	       -151.66959077	         43.99291688	        106.74593778	         70.45226984	         97.48285147	          0.03028547	          0.02505185	          0.05892317	          0.04446919	          0.08317755	          0.02524896	          0.13872680	          0.15411329	          0.09741180	          0.16752860	          0.18123619	          0.24324005	          0.01442015	          0.04418988	          0.03263132	          0.05963850	          0.06860310	          0.09707287	          0.04603416	          0.02054281	          0.04224115	          0.04161303	          0.01983769	          0.05268283	          0.14911404	          0.26915056	          0.06883459	          0.51345056	          0.27813368	          0.02760620	          0.60835467	          0.31651260	          0.06020111	          0.01205858	          0.10348350	          0.77934494	          0.88711632	          0.01000583	          0.01863661	          0.01001563	          0.99997996	          0.99999521	          0.01001490	          0.01000766	          0.77721322	          0.99995816	          0.04882601	          0.53924810	          0.97491823	          0.79719645	          0.03038533	          0.02079448	          0.02496859	          0.03455557	          0.01000366	          0.01000210	          0.01000284	          0.01001049	          0.01000844	          0.01000620	          0.11528645	          0.10976869	          0.02609774	          0.69261726	          0.99999355	          0.06650680	          0.05382177	          0.05712691	          0.99998977	          0.62003387	          0.87574567	          0.29438770	          0.04272766	          0.02496808	          0.75622109	          0.61627235	          0.05541442	          0.01000195	          0.01000066	          0.01000142	
          6.63095240	         -4.08660478	         -3.55542498	        356.22056869	         -0.73579705	          0.99766735	          0.06816897	         36.67035428	         -1.61554749	         -8.55546908	        -13.86833674	        -12.77025585	          1.22284914	         25.16257952	         49.53586572	         -9.94959146	        -25.40333799	         -0.25068562	        -21.19628846	         -0.14764743	         -0.40808060	         -0.94663389	         -9.84332185	         26.63594269	       -449.47085720	        -15.29750702	        -78.28322059	       -141.26194728	        190.26429734	       -154.60413622	         49.28568611	        102.80892276	         65.53055536	         96.47335539	          0.02522176	          0.02086332	          0.04907138	          0.03703502	          0.06926927	          0.02103077	          0.11553248	          0.12834327	          0.08115486	          0.27951753	          0.37473261	          0.57432905	          0.01200916	          0.03680001	          0.02719411	          0.04967495	          0.05713296	          0.08085233	          0.07006040	          0.13880624	          0.03519603	          0.03470150	          0.07909701	          0.04387445	          0.12417933	          0.22414019	          0.05732349	          0.58691974	          0.23162226	          0.42807905	          0.50661991	          0.26358230	          0.05013574	          0.01004264	          0.28281061	          0.92694327	          0.96262350	          0.04120580	          0.67510112	          0.05162021	          0.99998676	          0.99999629	          0.01008903	          0.01001144	          0.92613956	          0.99997674	          0.06730892	          0.44908458	          0.99169582	          0.93285605	          0.02530427	          0.01731723	          0.02079307	          0.02877673	          0.01000323	          0.01000196	          0.01000327	          0.01000595	          0.01000550	          0.01000427	          0.09601061	          0.09141437	          0.02173634	          0.85730969	          0.99998920	          0.09941585	          0.04604406	          0.04757439	          0.99998870	          0.77408572	          0.72934776	          0.72469844	          0.03558638	          0.02079258	          0.62976657	          0.87296009	          0.04614735	          0.01000229	          0.01000082	          0.01000168	
